<svg version="1.2" xmlns="http://www.w3.org/2000/svg" viewBox="0 0 1314 326" width="1314" height="326"><style>.a{fill:#31baff}.b{fill:#ffe5bb}.c{fill:#3edd6b}.d{fill:#fff}</style><path fill-rule="evenodd" class="a" d="m340.8 170.8c-12.2 21-29.1 35.4-45.5 49.3-2.2 1.9-4.5 3.8-6.7 5.7-5.1 4.4-7.6 13.2-10.9 24.4-4.9 17.2-11 38.5-31.2 54.3-17.3 13.6-40.6 20.8-67.3 20.8-21.3 0-39.7-4.4-51.4-8.1-22.4-7.1-42.9-18.7-61.1-34.4-17.3-15.1-31.7-33.3-42.7-54.1-12.3-23.2-28-57.7-22.3-90.4 1.2-7.3 3.5-14.2 6.7-20.6 6.3-12.5 16-22 29.5-29.1 10.7-5.6 21.8-8.6 31.6-11.2 5.3-1.5 10.3-2.8 14.2-4.3 6.6-2.5 11.5-10 14.4-16 9.2-18.1 21.6-32.2 37-41.8 15.4-9.7 33.4-14.6 53.4-14.6 23 0 48.9 6.8 74.9 19.6 21.5 10.6 42.8 25.3 59.9 41.1 15.1 14.1 24.9 31.7 28.3 50.9 3.6 20-0.2 40.2-10.8 58.5zm-130.1-1.6l39.3-28.6c3.1-2.2 1.5-7.1-2.3-7.1h-48.6c-1.7 0-3.2-1-3.7-2.6l-15-46.2c-1.2-3.6-6.3-3.6-7.4 0l-15.9 48.8h-51.4c-3.8 0-5.4 4.9-2.3 7.1l39.3 28.6c1.3 1 1.9 2.7 1.4 4.4l-14.9 45.9c-1.2 3.6 3 6.6 6 4.3l59.1-44.1-13.5 17.1 37.5 27.3c3 2.2 7.2-0.8 6-4.4l-15-46.1c-0.5-1.7 0-3.4 1.4-4.4z"/><path fill-rule="evenodd" class="b" d="m324.6 162c-11 18.8-27 32.4-42.5 45.5-2.2 1.9-4.5 3.9-6.7 5.8-8.3 7.2-11.5 18.4-15.3 31.3-4.6 16-9.8 34-26.3 47-14.8 11.6-35 17.7-58.5 17.7-19.5 0-36.4-4-47.2-7.4-20.4-6.5-39.3-17.1-55.9-31.6-16-13.9-29.3-30.7-39.5-50-11.4-21.3-25.8-52.9-20.9-81.2 1-5.9 2.9-11.5 5.4-16.6 11.2-22 33.9-28.1 52.2-33.1 5.6-1.5 10.9-2.9 15.5-4.7 8.7-3.3 16.1-11 22.1-22.8 16-31.8 42.8-48.6 77.6-48.6 20.8 0 44.5 6.3 68.6 18.1 20.3 10.1 40.3 23.8 56.5 38.8 12.8 12 21.1 26.8 24 42.9 2.9 16.7-0.2 33.6-9.1 48.9zm-76.9-28.5h-48.6c-1.7 0-3.2-1-3.7-2.6l-15-46.2c-1.2-3.6-6.3-3.6-7.4 0l-15.9 48.8h-51.4c-3.8 0-5.4 4.9-2.3 7.1l39.3 28.6c1.3 1 1.9 2.7 1.4 4.4l-14.9 45.9c-1.2 3.6 3 6.6 6 4.3l59.1-44.1-13.5 17.1 37.5 27.3c3 2.2 7.2-0.8 6-4.4l-15-46.1c-0.5-1.7 0-3.4 1.4-4.4l39.3-28.6c3.1-2.2 1.5-7.1-2.3-7.1z"/><path fill-rule="evenodd" class="c" d="m316.2 152.9c-11.3 19.3-29.5 33.3-46.2 47.7-23.6 20.4-15.9 58.1-41.1 77.9-24.7 19.4-64.3 16.8-92.5 7.9-38.1-12-68.7-39.7-87.2-74.7-10.4-19.5-23.6-48.1-19.4-72.1 0.7-4.4 2.1-8.6 4.1-12.5 11.1-22 39.5-23.1 60-30.9 13.7-5.2 23.2-16.9 29.7-29.8 38-75.4 133.6-31 180.3 12.4 21.2 19.7 27.1 48.6 12.3 74.1zm-68.5-19.4h-48.6c-1.7 0-3.2-1-3.7-2.6l-15-46.2c-1.2-3.6-6.3-3.6-7.4 0l-15.9 48.8h-51.4c-3.8 0-5.4 4.9-2.3 7.1l39.3 28.6c1.3 1 1.9 2.7 1.4 4.4l-14.9 45.9c-1.2 3.6 3 6.6 6 4.3l59.1-44.1-13.5 17.1 37.5 27.3c3 2.2 7.2-0.8 6-4.4l-15-46.1c-0.5-1.7 0-3.4 1.4-4.4l39.3-28.6c3.1-2.2 1.5-7.1-2.3-7.1z"/><path class="d" d="m250 140.6l-39.3 28.6c-1.4 1-1.9 2.7-1.4 4.4l15 46.1c1.2 3.6-3 6.6-6 4.4l-37.5-27.3 13.5-17.1-59.1 44.1c-3 2.3-7.2-0.7-6-4.3l14.9-45.9c0.5-1.7-0.1-3.4-1.4-4.4l-39.3-28.6c-3.1-2.2-1.5-7.1 2.3-7.1h51.4l15.9-48.8c1.1-3.6 6.2-3.6 7.4 0l15 46.2c0.5 1.6 2 2.6 3.7 2.6h48.6c3.8 0 5.4 4.9 2.3 7.1z"/><path class="d" d="m486 97.1v18.6h-38.8q-14.5 0-23.1 6-7.3 4.8-7.3 13 0 10.1 10.4 14.4 6.3 2.6 19.3 4.6 21.3 3 30.6 8 15.5 8.5 15.5 29.6 0 17.9-15.4 28.4-13.5 9.2-31.8 9.2h-46.3v-18.6h46.3q12.6 0 21.3-6 7.3-4.9 7.3-13 0-10.1-10.5-14.5-6.2-2.6-19.2-4.6-21.3-3-30.6-8-15.5-8.4-15.5-29.5 0-17.9 15.4-28.5 13.5-9.1 33.6-9.1z"/><path class="d" d="m528.3 153.4v28.5q0 13.5 7.5 21 7.4 7.4 20.8 7.4h1.6v18.6h-1.6q-21.2-0.1-33.9-12.9-13-13-13-34.1v-84.8h18.6v37.7h29.3v18.6z"/><path class="d" d="m542.4 266.6v-18.6h1.7q13.4 0 20.7-7.4 7.6-7.5 7.6-21v-84.8h18.6v84.8q0 21.1-13 34.1-12.7 12.8-33.9 12.9z"/><path class="d" d="m674.6 206.1v21q-6.7 3-14.4 3.9-13 1.5-24.6-3.2-12.4-4.9-19.5-15.6-7.9-11.7-7.9-30.3 0-23.1 13-36.1 12.8-12.8 34-12.8 21.2 0 34.1 12.8 12.9 13 12.9 34.3v48.8h-18.6v-48.8q0-13.6-7.6-21.2-7.3-7.3-20.8-7.3-13.5 0-20.9 7.3-7.5 7.6-7.5 23 0 15.2 7.5 22.8 7.4 7.4 20.9 7.4 12.3 0 19.4-6zm-47-102.7h18.6v18.6h-18.6zm36.5 0h18.6v18.6h-18.6z"/><path class="d" d="m776.3 134.8v18.6h-2.9q-20.5 0-28.4 8.2-6.1 6.4-6.1 20.3v47h-18.6v-47q0-21.3 11.4-33.2 13.3-13.9 41.7-13.9z"/><path class="d" d="m881.5 228.9h-18.6v-48.8q0-13.6-7.6-21.2-7.3-7.3-20.8-7.3-13.5 0-20.9 7.3-7.6 7.6-7.6 21.2v48.8h-18.6v-48.8q0-21.3 13-34.3 12.9-12.8 34.1-12.8 21.2 0 34 12.8 13 13 13 34.3z"/><path class="d" d="m918.2 141.1q11.3-8.1 26.6-8.1 19.4 0 32.2 12.8 13 13 13 34.3v48.8h-18.6v-48.8q0-13.6-7.5-21.2-7.4-7.3-19.1-7.3-11.6 0-19 7.3-7.6 7.6-7.6 21.2v48.8h-18.6v-131.8h18.6z"/><path fill-rule="evenodd" class="d" d="m1052.4 133q21.2 0 34.1 12.8 13 13 13 36.1 0 23-13 36-12.9 12.8-34.1 12.8-21.2 0-34-12.8-13-13-13-36 0-23.1 13-36.1 12.8-12.8 34-12.8zm-20.8 25.9q-7.6 7.6-7.6 23 0 15.2 7.6 22.8 7.4 7.4 20.8 7.4 13.6 0 20.9-7.4 7.6-7.6 7.6-22.8 0-15.4-7.6-23-7.3-7.3-20.9-7.3-13.4 0-20.8 7.3z"/><path class="d" d="m1135.2 228.9h-18.6v-131.8h18.6z"/><path class="d" d="m1231.8 146.3q11.6-13.3 30.8-13.3 19.3 0 30.9 13.3 11.2 12.9 11.2 33.8v48.8h-18.6v-48.8q0-14-6.7-21.6-6-6.9-16.8-6.9-10.8 0-16.8 6.9-6.6 7.6-6.6 21.6v48.8h-18.7v-48.8q0-14-6.6-21.6-5.9-6.9-16.8-6.9-10.8 0-16.8 6.9-6.6 7.6-6.6 21.6v48.8h-18.6v-48.8q0-20.9 11.2-33.8 11.5-13.3 30.8-13.3 19.3 0 30.8 13.3 1 1.2 1.9 2.3 1-1.1 2-2.3z"/><path class="d" d="m803.9 295.8q-3.5-2-5.6-5.4-2-3.5-2-7.8 0-4.3 2-7.8 2.1-3.4 5.7-5.4 3.6-1.9 8-1.9 3.5 0 6.3 1.1 2.9 1.2 4.9 3.5l-2.7 2.6q-3.3-3.5-8.3-3.5-3.3 0-6 1.5-2.7 1.5-4.2 4.1-1.5 2.6-1.5 5.8 0 3.2 1.5 5.8 1.5 2.6 4.2 4.1 2.7 1.5 6 1.5 4.9 0 8.3-3.6l2.7 2.7q-2 2.3-4.9 3.5-2.9 1.1-6.3 1.1-4.5 0-8.1-1.9z"/><path fill-rule="evenodd" class="d" d="m860.2 295.8q-3.6-2-5.7-5.5-2-3.4-2-7.7 0-4.3 2-7.7 2.1-3.5 5.7-5.5 3.5-1.9 8-1.9 4.5 0 8.1 1.9 3.6 2 5.6 5.4 2 3.5 2 7.8 0 4.3-2 7.8-2 3.4-5.6 5.4-3.6 1.9-8.1 1.9-4.5 0-8-1.9zm13.9-3.3q2.6-1.5 4.1-4.1 1.5-2.6 1.5-5.8 0-3.2-1.5-5.8-1.5-2.6-4.1-4.1-2.6-1.5-5.9-1.5-3.2 0-5.9 1.5-2.6 1.5-4.1 4.1-1.5 2.6-1.5 5.8 0 3.2 1.5 5.8 1.5 2.6 4.1 4.1 2.7 1.5 5.9 1.5 3.3 0 5.9-1.5z"/><path class="d" d="m942 267.8v29.6h-3.4l-17.8-22.1v22.1h-4.2v-29.6h3.5l17.7 22.1v-22.1z"/><path class="d" d="m979.3 296.7q-3.1-1-4.9-2.7l1.6-3.3q1.7 1.5 4.3 2.5 2.7 0.9 5.5 0.9 3.6 0 5.5-1.2 1.8-1.2 1.8-3.3 0-1.5-1-2.5-1-0.9-2.5-1.5-1.4-0.5-4.1-1.1-3.3-0.8-5.4-1.6-2-0.8-3.5-2.5-1.5-1.6-1.5-4.5 0-2.3 1.3-4.2 1.2-1.9 3.8-3.1 2.5-1.1 6.3-1.1 2.6 0 5.1 0.6 2.6 0.7 4.4 2l-1.4 3.4q-1.9-1.2-4-1.8-2.1-0.6-4.1-0.6-3.6 0-5.4 1.3-1.8 1.3-1.8 3.4 0 1.5 1 2.4 1 1 2.5 1.5 1.5 0.5 4.1 1.1 3.3 0.8 5.4 1.6 2 0.8 3.5 2.5 1.4 1.6 1.4 4.4 0 2.4-1.3 4.3-1.2 1.9-3.8 3-2.6 1.1-6.3 1.1-3.4 0-6.5-1z"/><path class="d" d="m1032.6 294.4q-3.3-3.4-3.3-9.8v-16.8h4.3v16.7q0 9.5 8.3 9.5 4.1 0 6.2-2.4 2.2-2.3 2.2-7.1v-16.7h4.1v16.8q0 6.4-3.3 9.8-3.3 3.3-9.2 3.3-6 0-9.3-3.3z"/><path class="d" d="m1089.2 267.8h4.3v25.9h16v3.7h-20.3z"/><path class="d" d="m1143.7 271.5h-10.1v-3.7h24.4v3.7h-10.1v25.9h-4.2z"/><path class="d" d="m1188.9 267.8h4.2v29.6h-4.2z"/><path class="d" d="m1253.6 267.8v29.6h-3.4l-17.8-22.1v22.1h-4.2v-29.6h3.4l17.8 22.1v-22.1z"/><path class="d" d="m1309.2 282.4h4.1v11.6q-2.2 1.8-5.1 2.8-3 0.9-6.1 0.9-4.5 0-8.1-1.9-3.6-2-5.6-5.4-2.1-3.5-2.1-7.8 0-4.3 2.1-7.8 2-3.4 5.6-5.4 3.6-1.9 8.2-1.9 3.5 0 6.4 1.1 2.9 1.2 4.9 3.4l-2.6 2.7q-3.5-3.5-8.6-3.5-3.4 0-6 1.5-2.7 1.5-4.3 4.1-1.5 2.6-1.5 5.8 0 3.2 1.5 5.8 1.6 2.6 4.3 4.1 2.6 1.5 6 1.5 4 0 6.9-1.9z"/><path class="d" d="m591 115.7h-18.6v-18.6h18.6z"/></svg>